<?xml version="1.0" standalone="no"?>
<!DOCTYPE svg PUBLIC "-//W3C//DTD SVG 20010904//EN"
 "http://www.w3.org/TR/2001/REC-SVG-20010904/DTD/svg10.dtd">
<svg version="1.0" xmlns="http://www.w3.org/2000/svg"
 width="700.000000pt" height="700.000000pt" viewBox="0 0 700.000000 700.000000"
 preserveAspectRatio="xMidYMid meet">
<metadata>
Created by potrace 1.11, written by Peter Selinger 2001-2013
</metadata>
<g transform="translate(0.000000,700.000000) scale(0.100000,-0.100000)"
fill="#000000" stroke="none">
<path d="M3450 6988 c-13 -7 -34 -27 -45 -45 -21 -30 -21 -38 -21 -530 1 -459
2 -501 19 -526 49 -76 168 -66 201 16 10 25 13 147 12 529 l-1 498 -30 29
c-35 36 -97 48 -135 29z"/>
<path d="M1000 6050 c-54 -28 -79 -91 -56 -144 16 -36 745 -766 766 -767 8 0
24 -2 34 -4 29 -6 82 20 101 48 20 31 25 73 13 107 -13 40 -749 770 -775 770
-12 0 -27 2 -35 5 -7 2 -29 -4 -48 -15z"/>
<path d="M5903 6057 c-10 -5 -183 -174 -386 -376 -399 -398 -403 -403 -373
-475 24 -58 85 -85 146 -64 39 13 770 749 771 776 3 43 2 47 -5 74 -14 50
-106 89 -153 65z"/>
<path d="M3447 5484 c-1 -1 -45 -5 -97 -9 -52 -3 -106 -8 -120 -10 -14 -2 -45
-7 -70 -10 -92 -14 -278 -67 -389 -111 -445 -178 -798 -496 -1028 -924 -73
-137 -155 -364 -179 -494 -3 -16 -7 -32 -9 -36 -2 -3 -7 -29 -10 -56 -4 -27
-8 -56 -10 -64 -7 -23 -15 -156 -17 -250 -2 -161 15 -309 56 -495 30 -134 107
-329 185 -473 46 -83 125 -209 140 -222 3 -3 26 -32 51 -65 48 -64 234 -254
288 -295 18 -14 43 -33 55 -44 18 -15 161 -109 232 -153 87 -53 342 -161 425
-178 8 -2 41 -10 73 -19 138 -36 311 -57 482 -58 403 -1 812 130 1140 365 264
189 451 404 617 707 73 134 157 375 183 525 53 304 51 515 -6 796 -33 160
-107 370 -172 489 -11 19 -29 53 -40 75 -18 36 -134 212 -147 225 -3 3 -31 37
-62 75 -79 96 -200 212 -313 301 -47 36 -192 134 -199 134 -3 0 -31 15 -63 34
-165 97 -433 185 -666 220 -65 10 -324 25 -330 20z"/>
<path d="M57 3596 c-66 -45 -74 -124 -18 -180 l31 -31 488 -1 c268 -1 504 2
524 7 99 25 110 174 16 213 -23 10 -146 13 -520 13 -482 0 -490 -1 -521 -21z"/>
<path d="M5909 3606 c-93 -30 -98 -172 -8 -210 23 -9 151 -12 529 -12 l500 1
32 33 c28 28 33 39 33 81 0 57 -27 94 -79 110 -45 13 -964 11 -1007 -3z"/>
<path d="M1715 1859 c-36 -10 -774 -744 -776 -772 -1 -9 -2 -27 -3 -39 -7 -78
91 -139 164 -102 45 23 760 748 761 772 1 12 2 28 3 35 1 6 -6 29 -16 50 -25
50 -76 72 -133 56z"/>
<path d="M5223 1862 c-57 -9 -102 -95 -81 -152 13 -35 726 -749 764 -766 87
-37 184 51 154 140 -11 36 -746 775 -770 777 -8 0 -22 2 -30 3 -8 1 -25 0 -37
-2z"/>
<path d="M3452 1155 c-17 -8 -40 -28 -50 -44 -17 -29 -18 -61 -18 -530 1 -491
1 -500 22 -528 47 -62 123 -68 178 -14 l31 31 1 500 c0 375 -3 507 -12 529
-23 56 -92 81 -152 56z"/>
</g>
</svg>
